# Blender v2.69 (sub 0) OBJ File: ''
# www.blender.org
v 0.500000 -0.500000 -0.500000
v 0.500000 -0.500000 0.500000
v -0.500000 -0.500000 0.500000
v -0.500000 -0.500000 -0.500000
v 0.500000 0.500000 -0.500000
v 0.500000 0.500000 0.500000
v -0.500000 0.500000 0.500000
v -0.500000 0.500000 -0.500000
vt 0.000000 0.000000
vt 1.000000 0.000000
vt 0.000000 1.000000
vt 1.000000 1.000000
vn 0.000000 -1.000000 0.000000
vn 0.000000 1.000000 0.000000
vn 1.000000 0.000000 0.000000
vn 0.000000 0.000000 1.000000
vn -1.000000 0.000000 0.000000
vn 0.000000 0.000000 -1.000000
s off

f 1/1/1 2/1/1 4/2/1
f 2/1/1 3/2/1 4/2/1

f 8/4/2 7/4/2 6/3/2
f 5/3/2 8/4/2 6/3/2

f 1/1/3 5/3/3 2/1/3
f 5/3/3 6/3/3 2/1/3

f 2/1/4 6/3/4 3/2/4
f 6/3/4 7/4/4 3/2/4

f 3/2/5 7/4/5 4/2/5
f 7/4/5 8/4/5 4/2/5

f 5/3/6 1/1/6 8/4/6
f 1/1/6 4/2/6 8/4/6
