# Blender v2.69 (sub 0) OBJ File: ''
# www.blender.org
v -0.250000 -0.250000 -0.500000
v 0.750000 -0.250000 -0.500000
v 0.750000 -0.250000 0.500000
v -0.250000 -0.250000 0.500000
v -0.250000 0.750000 -0.500000
v -0.250000 0.750000 0.500000
vt 1.000000 0.000000 
vt 0.000000 0.000000 
vt 1.000000 1.000000 
vt 0.000000 1.000000 
vn -1.000000 0.000000 0.000000
vn 0.000000 0.000000 1.000000
vn 0.000000 -1.000000 0.000000
vn 0.000000 0.000000 -1.000000
vn 0.707107 0.707107 0.000000
s off
f 6/1/1 5/2/1 4/3/1
f 1/1/3 2/2/3 4/3/3
f 1/3/4 5/4/4 2/1/4
f 4/2/2 3/1/2 6/4/2
f 2/1/5 5/2/5 3/3/5
f 5/2/1 1/4/1 4/3/1
f 2/2/3 3/4/3 4/3/3
f 5/2/5 6/4/5 3/3/5
